<svg xmlns:xlink="http://www.w3.org/1999/xlink" xmlns="http://www.w3.org/2000/svg" width="1054" height="206" viewBox="0 0 1054 206" fill="none"><path d="M0.421997 86.026V11.5007H20.176V44.2675H20.4798L47.6797 11.5007H71.3846L43.8809 43.5056L73.056 86.026H50.111L29.2932 54.9358L20.176 65.4516V86.026H0.421997ZM111.593 87.3976C91.2313 87.3976 76.1878 72.005 76.1878 48.992C76.1878 26.4364 91.2314 10.434 111.137 10.434C119.798 10.434 127.7 13.7868 133.018 20.1879L133.322 20.0354V11.5007H153.228V86.026H134.234V77.1865L133.93 77.0342C128.764 83.7399 121.318 87.3976 111.593 87.3976ZM115.392 69.414C125.573 69.414 134.234 61.3366 134.234 49.1443C134.234 37.1045 126.028 28.2653 115.392 28.2653C104.603 28.2653 96.3978 36.3426 96.3978 49.1443C96.3978 61.0318 104.147 69.414 115.392 69.414ZM172.335 86.026V11.5007H238.586V86.026H218.68V28.4176H192.24V86.026H172.335ZM258.439 86.026V11.5007H278.192V58.8982H278.498L309.343 11.5007H328.186V86.026H308.433V40.7623H308.127L277.586 86.026H258.439Z" fill="white"/><path opacity="0.8" d="M0.421997 176.308V105.413H63.4475V176.308H44.5109V121.505H19.3586V176.308H0.421997ZM111.976 177.612C92.6058 177.612 78.2949 162.97 78.2949 141.077C78.2949 119.62 92.6058 104.398 111.542 104.398C119.782 104.398 127.298 107.587 132.358 113.676L132.647 113.531V105.413H151.584V176.308H133.514V167.899L133.225 167.754C128.31 174.132 121.227 177.612 111.976 177.612ZM115.59 160.505C125.275 160.505 133.514 152.821 133.514 141.223C133.514 129.769 125.708 121.36 115.59 121.36C105.326 121.36 97.5207 129.044 97.5207 141.223C97.5207 152.531 104.893 160.505 115.59 160.505ZM169.768 205.014V105.413H188.704V113.531H188.993C194.052 107.587 201.57 104.398 210.243 104.398C229.324 104.398 243.635 119.62 243.635 141.077C243.635 162.97 229.324 177.612 209.665 177.612C200.847 177.612 193.908 174.279 188.993 168.334L188.704 168.479V205.014H169.768ZM206.34 160.505C216.893 160.505 224.41 152.531 224.41 141.223C224.41 129.044 216.315 121.36 206.195 121.36C195.355 121.36 187.837 129.769 187.837 141.223C187.837 152.821 195.933 160.505 206.34 160.505ZM288.38 177.612C269.011 177.612 254.699 162.97 254.699 141.077C254.699 119.62 269.011 104.398 287.946 104.398C296.186 104.398 303.703 107.587 308.762 113.676L309.051 113.531V105.413H327.988V176.308H309.92V167.899L309.631 167.754C304.715 174.132 297.633 177.612 288.38 177.612ZM291.994 160.505C301.68 160.505 309.92 152.821 309.92 141.223C309.92 129.769 302.114 121.36 291.994 121.36C281.731 121.36 273.925 129.044 273.925 141.223C273.925 152.531 281.298 160.505 291.994 160.505Z" fill="white"/><path d="M378.422 0V186.868" stroke="#D5D5D5" stroke-width="3.20697"/><path opacity="0.5" d="M449.933 52.9025C461.813 52.9025 471.444 43.1728 471.444 31.1704C471.444 19.1681 461.813 9.43835 449.933 9.43835C438.053 9.43835 428.422 19.1681 428.422 31.1704C428.422 43.1728 438.053 52.9025 449.933 52.9025Z" fill="white"/><path opacity="0.5" d="M574.909 52.9066C586.789 52.9066 596.42 43.1768 596.42 31.1745C596.42 19.1722 586.789 9.44238 574.909 9.44238C563.029 9.44238 553.398 19.1722 553.398 31.1745C553.398 43.1768 563.029 52.9066 574.909 52.9066Z" fill="white"/><path opacity="0.5" d="M512.438 115.177C524.319 115.177 533.949 105.447 533.949 93.445C533.949 81.4427 524.319 71.7129 512.438 71.7129C500.558 71.7129 490.927 81.4427 490.927 93.445C490.927 105.447 500.558 115.177 512.438 115.177Z" fill="white"/><path opacity="0.5" d="M449.935 177.432C461.815 177.432 471.446 167.703 471.446 155.7C471.446 143.698 461.815 133.968 449.935 133.968C438.055 133.968 428.424 143.698 428.424 155.7C428.424 167.703 438.055 177.432 449.935 177.432Z" fill="white"/><path opacity="0.5" d="M574.911 177.432C586.791 177.432 596.422 167.703 596.422 155.7C596.422 143.698 586.791 133.968 574.911 133.968C563.031 133.968 553.4 143.698 553.4 155.7C553.4 167.703 563.031 177.432 574.911 177.432Z" fill="white"/><path d="M514.489 134.07C514.316 134.056 514.136 134.041 513.963 134.027C505.825 133.452 498.163 129.952 492.358 124.168L481.426 113.277C475.578 107.449 472.1 99.6786 471.351 91.4136C471.344 91.3335 471.337 91.2462 471.33 91.1662C470.285 80.8276 461.903 72.5771 451.64 71.7768C438.404 70.7437 427.45 81.8244 428.495 95.2041C429.308 105.623 437.569 114.106 447.867 115.074C448.04 115.088 448.22 115.103 448.393 115.117C456.53 115.692 464.193 119.192 470.004 124.976L480.936 135.867C486.784 141.695 490.262 149.465 491.011 157.73C491.019 157.81 491.026 157.898 491.033 157.978C492.077 168.316 500.467 176.567 510.722 177.367C523.959 178.4 534.912 167.319 533.868 153.94C533.054 143.521 524.787 135.038 514.496 134.07H514.489Z" fill="white"/><path d="M576.711 71.7843C576.624 71.7843 576.545 71.7698 576.459 71.7625C568.019 71.1586 560.046 67.6664 554.062 61.6204L543.85 51.3036C538.01 45.4032 534.56 37.5674 533.847 29.2441C533.847 29.1641 533.833 29.0768 533.826 28.9968C532.832 18.6364 524.456 10.335 514.187 9.50554C500.922 8.43604 489.925 19.5385 490.983 32.9474C491.804 43.3296 500.014 51.7838 510.276 52.7951C510.356 52.8024 510.442 52.8097 510.521 52.8169C518.753 53.5299 526.509 57.0222 532.356 62.9227L543.44 74.1198C549.194 79.933 552.665 87.6087 553.529 95.7864C553.536 95.8664 553.543 95.9465 553.558 96.0265C554.746 106.249 563.093 114.325 573.247 115.103C586.447 116.107 597.365 105.063 596.357 91.7266C595.557 81.1916 587.139 72.6428 576.711 71.7771V71.7843Z" fill="white"/><path d="M658.636 55.434L649.035 41.7469H638.514V55.434H629.015V19.7352H638.514V33.4734H648.473L657.87 19.7352H669.412L656.849 37.2526L670.434 55.434H658.636ZM705.275 19.9395L716.102 55.6382H706.398L703.896 47.3647H684.693L682.19 55.6382H672.487L683.314 19.9395H705.275ZM697.971 27.7534H690.617L687.247 39.0912H701.342L697.971 27.7534ZM747.276 19.7352H762.751V55.434H753.149V28.0088L736.96 55.434H721.332V19.7352H730.933V47.1604L747.276 19.7352ZM670.127 103.569H675.03V116.235H665.531V111.485H640.864C633.765 111.485 630.19 109.34 629.066 103.671C628.811 102.292 628.709 99.4833 628.709 97.7469C628.709 96.0616 628.709 75.6331 628.709 75.6331H638.514V100.3C638.514 102.088 639.944 103.569 641.732 103.569H660.628V75.6331H670.127V103.569ZM706.828 75.7352H722.303V111.434H712.701V84.0088L696.512 111.434H680.884V75.7352H690.486V103.16L706.828 75.7352ZM773.615 75.7352C783.574 75.7352 787.966 79.4634 787.966 89.6266V97.083C787.966 106.838 784.851 111.485 774.892 111.485H763.554V116.388H754.055V111.485H742.717C732.758 111.485 729.643 106.838 729.643 97.083V89.6266C729.643 79.4634 734.035 75.7352 743.994 75.7352H754.055V70.8324H763.554V75.7352H773.615ZM744.198 103.671H754.055V83.5491H744.249C740.93 83.5491 739.449 84.5195 739.449 89.1159V97.5937C739.449 101.322 740.675 103.671 744.198 103.671ZM778.161 97.5937V89.1159C778.161 84.5195 776.68 83.5491 773.36 83.5491H763.554V103.671H773.411C776.935 103.671 778.161 101.322 778.161 97.5937ZM836.407 83.4981C836.662 84.877 836.764 87.6859 836.764 89.4223C836.764 91.1587 836.713 93.8144 836.458 95.2955C835.538 101.169 832.525 103.671 824.609 103.671H804.845V111.434H795.345V75.6842H824.609C831.708 75.6842 835.283 77.8292 836.407 83.4981ZM826.958 92.1291V86.7666C826.958 84.9791 825.528 83.4981 823.741 83.4981H804.845V95.3466H823.741C825.528 95.3466 826.958 93.9166 826.958 92.1291ZM871.665 75.7352C881.624 75.7352 884.739 80.3827 884.739 90.1373V97.5937C884.739 107.757 880.296 111.485 870.337 111.485H857.059C847.1 111.485 842.708 107.757 842.708 97.5937V90.1373C842.708 80.3827 845.823 75.7352 855.782 75.7352H871.665ZM874.934 98.1044V89.6266C874.934 85.8984 873.708 83.5491 870.184 83.5491H857.263C853.739 83.5491 852.513 85.8984 852.513 89.6266V98.1044C852.513 102.701 853.995 103.671 857.314 103.671H870.133C873.453 103.671 874.934 102.701 874.934 98.1044ZM933.52 89.218L933.571 98.6151C933.571 102.803 933.06 104.284 932.805 105.203C932.039 107.706 930.456 109.595 927.749 110.617C926.472 111.076 924.276 111.485 921.416 111.485H892.152V75.7352H916.82C919.68 75.7352 921.876 76.1438 923.152 76.6035C925.859 77.5738 927.34 79.4634 928.208 82.017C928.515 82.8852 928.975 84.4173 928.975 88.6052V89.218H933.52ZM919.475 88.5541C919.475 85.7452 918.76 83.5491 915.083 83.5491H901.651V89.218H919.475V88.5541ZM919.68 103.671C923.306 103.671 924.072 101.475 924.072 98.6151V97.0319H901.651V103.671H919.68ZM970.207 75.7352L981.034 111.485H971.331L968.828 103.16H949.626L947.123 111.485H937.42L948.247 75.7352H970.207ZM962.904 83.5491H955.55L952.179 94.8869H966.275L962.904 83.5491ZM990.552 102.548C987.641 101.322 986.211 98.9726 985.65 95.2955C985.394 93.7634 985.343 91.1587 985.343 89.4223C985.343 87.6859 985.445 84.877 985.701 83.4981C986.824 77.8292 990.399 75.6842 997.498 75.6842H1026.76V111.434H1017.26V103.62H1000.66L996.119 111.434H985.343L990.552 102.548ZM1017.26 95.3466V83.4981H998.366C996.579 83.4981 995.149 84.928 995.149 86.7155V92.1291C995.149 93.9166 996.579 95.3466 998.366 95.3466H1017.26ZM658.687 167.485L649.086 153.747H638.565V167.485H629.066V131.735H638.565V145.473H648.524L657.921 131.735H669.463L656.9 149.253L670.485 167.485H658.687ZM705.475 131.735L716.302 167.485H706.599L704.096 159.16H684.894L682.391 167.485H672.688L683.515 131.735H705.475ZM698.172 139.549H690.818L687.447 150.887H701.543L698.172 139.549ZM763.89 131.735C773.849 131.735 778.241 135.463 778.241 145.627V153.083C778.241 162.838 775.126 167.485 765.167 167.485H753.829V172.388H744.33V167.485H732.992C723.033 167.485 719.918 162.838 719.918 153.083V145.627C719.918 135.463 724.31 131.735 734.269 131.735H744.33V126.832H753.829V131.735H763.89ZM734.473 159.671H744.33V139.549H734.524C731.204 139.549 729.723 140.519 729.723 145.116V153.594C729.723 157.322 730.949 159.671 734.473 159.671ZM768.435 153.594V145.116C768.435 140.519 766.954 139.549 763.635 139.549H753.829V159.671H763.686C767.21 159.671 768.435 157.322 768.435 153.594ZM827.09 139.549H795.17V145.678H822.136V153.492H795.17V159.671H827.09V167.485H785.671V131.735H827.09V139.549ZM877.769 159.671H882.672V172.388H873.122V167.485H841.1V172.388H831.55L831.448 159.671H836.3C836.3 156.913 836.3 146.954 836.3 145.473C836.3 143.737 836.453 140.928 836.708 139.549C837.832 133.88 841.407 131.735 848.506 131.735H877.769V159.671ZM846.105 142.767V159.671H868.219V139.549H849.374C847.586 139.549 846.105 140.979 846.105 142.767ZM929.621 139.498C929.877 140.877 929.979 143.686 929.979 145.422C929.979 147.159 929.928 149.814 929.672 151.295C928.753 157.169 925.74 159.671 917.824 159.671H898.059V167.434H888.56V131.684H917.824C924.923 131.684 928.498 133.829 929.621 139.498ZM920.173 148.129V142.767C920.173 140.979 918.743 139.498 916.956 139.498H898.059V151.347H916.956C918.743 151.347 920.173 149.917 920.173 148.129ZM964.571 131.735L975.399 167.485H965.695L963.193 159.16H943.99L941.487 167.485H931.784L942.611 131.735H964.571ZM957.268 139.549H949.914L946.543 150.887H960.639L957.268 139.549Z" fill="white"/></svg>