<svg xmlns:xlink="http://www.w3.org/1999/xlink" xmlns="http://www.w3.org/2000/svg" width="24" height="24" viewBox="0 0 24 24" fill="none"><path d="M12 3C7.032 3 3 7.032 3 12C3 16.968 7.032 21 12 21C16.968 21 21 16.968 21 12C21 7.032 16.968 3 12 3ZM16.176 9.12C16.041 10.542 15.456 13.998 15.159 15.591C15.033 16.266 14.781 16.491 14.547 16.518C14.025 16.563 13.629 16.176 13.125 15.843C12.333 15.321 11.883 14.997 11.118 14.493C10.227 13.908 10.803 13.584 11.316 13.062C11.451 12.927 13.755 10.83 13.8 10.641C13.8063 10.6124 13.8054 10.5827 13.7976 10.5544C13.7897 10.5262 13.7751 10.5003 13.755 10.479C13.701 10.434 13.629 10.452 13.566 10.461C13.485 10.479 12.225 11.316 9.768 12.972C9.408 13.215 9.084 13.341 8.796 13.332C8.472 13.323 7.86 13.152 7.401 12.999C6.834 12.819 6.393 12.72 6.429 12.405C6.447 12.243 6.672 12.081 7.095 11.91C9.723 10.767 11.469 10.011 12.342 9.651C14.844 8.607 15.357 8.427 15.699 8.427C15.771 8.427 15.942 8.445 16.05 8.535C16.14 8.607 16.167 8.706 16.176 8.778C16.167 8.832 16.185 8.994 16.176 9.12Z" fill="white"/></svg>