<svg xmlns:xlink="http://www.w3.org/1999/xlink" xmlns="http://www.w3.org/2000/svg" width="1054" height="206" viewBox="0 0 1054 206" fill="none"><path d="M0.222046 86.592V12.0668H19.9761V44.8335H20.2799L47.4798 12.0668H71.1847L43.681 44.0716L72.8561 86.592H49.9111L29.0933 55.5018L19.9761 66.0176V86.592H0.222046ZM111.393 87.9636C91.0314 87.9636 75.9879 72.571 75.9879 49.558C75.9879 27.0024 91.0315 11 110.937 11C119.598 11 127.5 14.3529 132.818 20.7539L133.122 20.6014V12.0668H153.028V86.592H134.034V77.7525L133.73 77.6002C128.564 84.3059 121.118 87.9636 111.393 87.9636ZM115.192 69.98C125.373 69.98 134.034 61.9026 134.034 49.7103C134.034 37.6705 125.828 28.8313 115.192 28.8313C104.403 28.8313 96.1979 36.9086 96.1979 49.7103C96.1979 61.5978 103.947 69.98 115.192 69.98ZM172.135 86.592V12.0668H238.386V86.592H218.48V28.9836H192.04V86.592H172.135ZM258.239 86.592V12.0668H277.992V59.4642H278.298L309.143 12.0668H327.986V86.592H308.233V41.3283H307.927L277.386 86.592H258.239Z" fill="#0047FF"/><path d="M0.222046 176.874V105.979H63.2476V176.874H44.311V122.071H19.1587V176.874H0.222046ZM111.776 178.178C92.4059 178.178 78.095 163.536 78.095 141.643C78.095 120.186 92.4059 104.964 111.342 104.964C119.582 104.964 127.098 108.153 132.158 114.242L132.447 114.097V105.979H151.384V176.874H133.314V168.465L133.025 168.32C128.11 174.698 121.027 178.178 111.776 178.178ZM115.39 161.071C125.075 161.071 133.314 153.387 133.314 141.789C133.314 130.335 125.508 121.926 115.39 121.926C105.126 121.926 97.3208 129.61 97.3208 141.789C97.3208 153.097 104.693 161.071 115.39 161.071ZM169.568 205.58V105.979H188.504V114.097H188.793C193.852 108.153 201.37 104.964 210.043 104.964C229.124 104.964 243.435 120.186 243.435 141.643C243.435 163.536 229.124 178.178 209.465 178.178C200.647 178.178 193.708 174.845 188.793 168.9L188.504 169.045V205.58H169.568ZM206.14 161.071C216.693 161.071 224.21 153.097 224.21 141.789C224.21 129.61 216.115 121.926 205.995 121.926C195.155 121.926 187.637 130.335 187.637 141.789C187.637 153.387 195.733 161.071 206.14 161.071ZM288.18 178.178C268.811 178.178 254.499 163.536 254.499 141.643C254.499 120.186 268.811 104.964 287.746 104.964C295.986 104.964 303.503 108.153 308.562 114.242L308.851 114.097V105.979H327.788V176.874H309.72V168.465L309.431 168.32C304.515 174.698 297.433 178.178 288.18 178.178ZM291.794 161.071C301.48 161.071 309.72 153.387 309.72 141.789C309.72 130.335 301.914 121.926 291.794 121.926C281.531 121.926 273.725 129.61 273.725 141.789C273.725 153.097 281.098 161.071 291.794 161.071Z" fill="#6A4CFF"/><path d="M378.222 0.56601V187.434" stroke="#D5D5D5" stroke-width="3.20697"/><path opacity="0.5" d="M449.733 53.4685C461.613 53.4685 471.244 43.7387 471.244 31.7364C471.244 19.7341 461.613 10.0043 449.733 10.0043C437.853 10.0043 428.222 19.7341 428.222 31.7364C428.222 43.7387 437.853 53.4685 449.733 53.4685Z" fill="url(#paint0_linear_2068_6454)"/><path opacity="0.5" d="M574.709 53.4726C586.589 53.4726 596.22 43.7429 596.22 31.7405C596.22 19.7382 586.589 10.0085 574.709 10.0085C562.829 10.0085 553.198 19.7382 553.198 31.7405C553.198 43.7429 562.829 53.4726 574.709 53.4726Z" fill="url(#paint1_linear_2068_6454)"/><path opacity="0.5" d="M512.238 115.743C524.119 115.743 533.749 106.013 533.749 94.011C533.749 82.0087 524.119 72.2789 512.238 72.2789C500.358 72.2789 490.727 82.0087 490.727 94.011C490.727 106.013 500.358 115.743 512.238 115.743Z" fill="url(#paint2_linear_2068_6454)"/><path opacity="0.5" d="M449.735 177.998C461.615 177.998 471.246 168.269 471.246 156.266C471.246 144.264 461.615 134.534 449.735 134.534C437.855 134.534 428.224 144.264 428.224 156.266C428.224 168.269 437.855 177.998 449.735 177.998Z" fill="url(#paint3_linear_2068_6454)"/><path opacity="0.5" d="M574.711 177.998C586.591 177.998 596.222 168.269 596.222 156.266C596.222 144.264 586.591 134.534 574.711 134.534C562.831 134.534 553.2 144.264 553.2 156.266C553.2 168.269 562.831 177.998 574.711 177.998Z" fill="url(#paint4_linear_2068_6454)"/><path d="M514.289 134.636C514.116 134.622 513.936 134.607 513.763 134.593C505.625 134.018 497.963 130.518 492.158 124.734L481.226 113.843C475.379 108.015 471.9 100.245 471.151 91.9796C471.144 91.8995 471.137 91.8122 471.13 91.7322C470.085 81.3936 461.703 73.1431 451.441 72.3428C438.204 71.3097 427.25 82.3904 428.295 95.7701C429.108 106.189 437.369 114.672 447.667 115.64C447.84 115.654 448.02 115.669 448.193 115.683C456.33 116.258 463.993 119.758 469.805 125.542L480.736 136.433C486.584 142.261 490.063 150.031 490.811 158.296C490.819 158.376 490.826 158.464 490.833 158.544C491.877 168.882 500.267 177.133 510.522 177.933C523.759 178.966 534.712 167.885 533.668 154.506C532.854 144.087 524.587 135.604 514.296 134.636H514.289Z" fill="url(#paint5_linear_2068_6454)"/><path d="M576.511 72.3504C576.424 72.3504 576.345 72.3358 576.259 72.3285C567.818 71.7247 559.846 68.2324 553.862 62.1864L543.65 51.8697C537.81 45.9692 534.36 38.1334 533.647 29.8102C533.647 29.7301 533.633 29.6428 533.625 29.5628C532.632 19.2024 524.256 10.901 513.987 10.0716C500.722 9.00208 489.725 20.1046 490.783 33.5134C491.604 43.8957 499.814 52.3499 510.076 53.3612C510.156 53.3684 510.242 53.3757 510.321 53.383C518.553 54.096 526.309 57.5883 532.156 63.4887L543.24 74.6858C548.994 80.499 552.465 88.1747 553.329 96.3524C553.336 96.4325 553.343 96.5125 553.358 96.5925C554.546 106.815 562.893 114.891 573.047 115.669C586.247 116.673 597.165 105.629 596.157 92.2927C595.357 81.7577 586.939 73.2089 576.511 72.3431V72.3504Z" fill="url(#paint6_linear_2068_6454)"/><path d="M658.436 56L648.835 42.3129H638.314V56H628.815V20.3013H638.314V34.0394H648.273L657.67 20.3013H669.212L656.649 37.8187L670.234 56H658.436ZM705.075 20.5056L715.902 56.2043H706.198L703.696 47.9308H684.493L681.991 56.2043H672.287L683.114 20.5056H705.075ZM697.772 28.3195H690.417L687.047 39.6572H701.142L697.772 28.3195ZM747.076 20.3013H762.551V56H752.949V28.5748L736.76 56H721.132V20.3013H730.734V47.7265L747.076 20.3013ZM669.927 104.135H674.83V116.801H665.331V112.051H640.664C633.565 112.051 629.99 109.906 628.866 104.237C628.611 102.858 628.509 100.049 628.509 98.3129C628.509 96.6276 628.509 76.1991 628.509 76.1991H638.314V100.866C638.314 102.654 639.744 104.135 641.532 104.135H660.428V76.1991H669.927V104.135ZM706.628 76.3013H722.103V112H712.502V84.5748L696.312 112H680.684V76.3013H690.286V103.726L706.628 76.3013ZM773.415 76.3013C783.374 76.3013 787.766 80.0295 787.766 90.1926V97.649C787.766 107.404 784.651 112.051 774.692 112.051H763.354V116.954H753.855V112.051H742.517C732.559 112.051 729.443 107.404 729.443 97.649V90.1926C729.443 80.0295 733.835 76.3013 743.794 76.3013H753.855V71.3985H763.354V76.3013H773.415ZM743.998 104.237H753.855V84.1152H744.05C740.73 84.1152 739.249 85.0855 739.249 89.6819V98.1597C739.249 101.888 740.475 104.237 743.998 104.237ZM777.961 98.1597V89.6819C777.961 85.0855 776.48 84.1152 773.16 84.1152H763.354V104.237H773.211C776.735 104.237 777.961 101.888 777.961 98.1597ZM836.207 84.0641C836.462 85.443 836.564 88.2519 836.564 89.9883C836.564 91.7248 836.513 94.3805 836.258 95.8615C835.338 101.735 832.325 104.237 824.409 104.237H804.645V112H795.145V76.2502H824.409C831.508 76.2502 835.083 78.3952 836.207 84.0641ZM826.758 92.6951V87.3326C826.758 85.5452 825.328 84.0641 823.541 84.0641H804.645V95.9126H823.541C825.328 95.9126 826.758 94.4826 826.758 92.6951ZM871.465 76.3013C881.424 76.3013 884.539 80.9488 884.539 90.7033V98.1597C884.539 108.323 880.096 112.051 870.137 112.051H856.859C846.9 112.051 842.508 108.323 842.508 98.1597V90.7033C842.508 80.9488 845.623 76.3013 855.582 76.3013H871.465ZM874.734 98.6704V90.1926C874.734 86.4644 873.508 84.1152 869.984 84.1152H857.063C853.539 84.1152 852.314 86.4644 852.314 90.1926V98.6704C852.314 103.267 853.795 104.237 857.114 104.237H869.933C873.253 104.237 874.734 103.267 874.734 98.6704ZM933.32 89.7841L933.371 99.1811C933.371 103.369 932.86 104.85 932.605 105.769C931.839 108.272 930.256 110.161 927.549 111.183C926.272 111.643 924.076 112.051 921.216 112.051H891.952V76.3013H916.62C919.48 76.3013 921.676 76.7099 922.952 77.1695C925.659 78.1398 927.14 80.0295 928.009 82.583C928.315 83.4512 928.775 84.9834 928.775 89.1712V89.7841H933.32ZM919.275 89.1201C919.275 86.3112 918.56 84.1152 914.883 84.1152H901.452V89.7841H919.275V89.1201ZM919.48 104.237C923.106 104.237 923.872 102.041 923.872 99.1811V97.5979H901.452V104.237H919.48ZM970.007 76.3013L980.834 112.051H971.131L968.628 103.726H949.426L946.923 112.051H937.22L948.047 76.3013H970.007ZM962.704 84.1152H955.35L951.979 95.453H966.075L962.704 84.1152ZM990.352 103.114C987.441 101.888 986.011 99.5386 985.45 95.8615C985.194 94.3294 985.143 91.7248 985.143 89.9883C985.143 88.2519 985.245 85.443 985.501 84.0641C986.624 78.3952 990.199 76.2502 997.298 76.2502H1026.56V112H1017.06V104.186H1000.46L995.919 112H985.143L990.352 103.114ZM1017.06 95.9126V84.0641H998.166C996.379 84.0641 994.949 85.4941 994.949 87.2816V92.6951C994.949 94.4826 996.379 95.9126 998.166 95.9126H1017.06ZM658.487 168.051L648.886 154.313H638.365V168.051H628.866V132.301H638.365V146.039H648.324L657.721 132.301H669.263L656.7 149.819L670.285 168.051H658.487ZM705.275 132.301L716.102 168.051H706.399L703.896 159.726H684.694L682.191 168.051H672.488L683.315 132.301H705.275ZM697.972 140.115H690.618L687.247 151.453H701.343L697.972 140.115ZM763.69 132.301C773.649 132.301 778.041 136.029 778.041 146.193V153.649C778.041 163.404 774.926 168.051 764.967 168.051H753.629V172.954H744.13V168.051H732.792C722.833 168.051 719.718 163.404 719.718 153.649V146.193C719.718 136.029 724.11 132.301 734.069 132.301H744.13V127.398H753.629V132.301H763.69ZM734.273 160.237H744.13V140.115H734.324C731.004 140.115 729.523 141.086 729.523 145.682V154.16C729.523 157.888 730.749 160.237 734.273 160.237ZM768.235 154.16V145.682C768.235 141.086 766.754 140.115 763.435 140.115H753.629V160.237H763.486C767.01 160.237 768.235 157.888 768.235 154.16ZM826.89 140.115H794.97V146.244H821.936V154.058H794.97V160.237H826.89V168.051H785.471V132.301H826.89V140.115ZM877.569 160.237H882.472V172.954H872.922V168.051H840.9V172.954H831.35L831.248 160.237H836.1C836.1 157.479 836.1 147.52 836.1 146.039C836.1 144.303 836.253 141.494 836.508 140.115C837.632 134.446 841.207 132.301 848.306 132.301H877.569V160.237ZM845.905 143.333V160.237H868.019V140.115H849.174C847.386 140.115 845.905 141.545 845.905 143.333ZM929.421 140.064C929.677 141.443 929.779 144.252 929.779 145.988C929.779 147.725 929.728 150.38 929.472 151.862C928.553 157.735 925.54 160.237 917.624 160.237H897.859V168H888.36V132.25H917.624C924.723 132.25 928.298 134.395 929.421 140.064ZM919.973 148.695V143.333C919.973 141.545 918.543 140.064 916.756 140.064H897.859V151.913H916.756C918.543 151.913 919.973 150.483 919.973 148.695ZM964.372 132.301L975.199 168.051H965.495L962.993 159.726H943.79L941.287 168.051H931.584L942.411 132.301H964.372ZM957.068 140.115H949.714L946.343 151.453H960.439L957.068 140.115Z" fill="#212121"/><defs><linearGradient id="paint0_linear_2068_6454" x1="428.222" y1="31.7364" x2="471.244" y2="31.7364" gradientUnits="userSpaceOnUse"><stop stop-color="#00C6FB"/><stop offset="1" stop-color="#005BEA"/></linearGradient><linearGradient id="paint1_linear_2068_6454" x1="553.198" y1="31.7405" x2="596.22" y2="31.7405" gradientUnits="userSpaceOnUse"><stop stop-color="#00C6FB"/><stop offset="1" stop-color="#005BEA"/></linearGradient><linearGradient id="paint2_linear_2068_6454" x1="490.727" y1="94.011" x2="533.749" y2="94.011" gradientUnits="userSpaceOnUse"><stop stop-color="#00C6FB"/><stop offset="1" stop-color="#005BEA"/></linearGradient><linearGradient id="paint3_linear_2068_6454" x1="428.224" y1="156.266" x2="471.246" y2="156.266" gradientUnits="userSpaceOnUse"><stop stop-color="#00C6FB"/><stop offset="1" stop-color="#005BEA"/></linearGradient><linearGradient id="paint4_linear_2068_6454" x1="553.2" y1="156.266" x2="596.222" y2="156.266" gradientUnits="userSpaceOnUse"><stop stop-color="#00C6FB"/><stop offset="1" stop-color="#005BEA"/></linearGradient><linearGradient id="paint5_linear_2068_6454" x1="428.226" y1="125.138" x2="533.737" y2="125.138" gradientUnits="userSpaceOnUse"><stop stop-color="#00C6FB"/><stop offset="1" stop-color="#005BEA"/></linearGradient><linearGradient id="paint6_linear_2068_6454" x1="490.713" y1="62.8664" x2="596.221" y2="62.8664" gradientUnits="userSpaceOnUse"><stop stop-color="#00C6FB"/><stop offset="1" stop-color="#005BEA"/></linearGradient></defs></svg>