<svg xmlns:xlink="http://www.w3.org/1999/xlink" xmlns="http://www.w3.org/2000/svg" width="200" height="57" viewBox="0 0 200 57" fill="none"><rect width="200" height="57" rx="10" fill="white"/><path d="M40.6754 27.7657C40.6936 26.3534 41.0698 24.9686 41.769 23.7402C42.4681 22.5118 43.4675 21.4797 44.6741 20.74C43.9076 19.6483 42.8963 18.7499 41.7207 18.1161C40.5451 17.4823 39.2375 17.1306 37.9017 17.0889C35.0522 16.7907 32.2898 18.7892 30.8378 18.7892C29.3577 18.7892 27.1221 17.1186 24.7147 17.1679C23.1575 17.2181 21.64 17.6697 20.3098 18.4786C18.9797 19.2875 17.8824 20.4262 17.1248 21.7838C13.8431 27.4497 16.2909 35.7766 19.4346 40.3565C21.0074 42.5992 22.8455 45.1042 25.2508 45.0154C27.6044 44.9181 28.4834 43.5188 31.3245 43.5188C34.1392 43.5188 34.9639 45.0154 37.4179 44.9589C39.9435 44.918 41.5347 42.7063 43.0524 40.4424C44.1824 38.8445 45.052 37.0784 45.6289 35.2096C44.1616 34.5907 42.9095 33.5549 42.0286 32.2311C41.1477 30.9074 40.6771 29.3544 40.6754 27.7657V27.7657Z" fill="#171717"/><path opacity="0.6" d="M36.0402 14.0784C37.4172 12.4299 38.0957 10.3111 37.9314 8.17188C35.8276 8.39222 33.8842 9.3949 32.4886 10.9801C31.8062 11.7545 31.2836 12.6555 30.9506 13.6314C30.6176 14.6074 30.4807 15.6392 30.5479 16.668C31.6001 16.6788 32.6412 16.4513 33.5925 16.0028C34.5439 15.5542 35.3808 14.8962 36.0402 14.0784Z" fill="#171717"/><path d="M70.4253 39.3409H62.3934L60.4645 45.0204H57.0625L64.6702 24.0078H68.2048L75.8125 45.0204H72.3524L70.4253 39.3409ZM63.2252 36.7202H69.5918L66.4533 27.5028H66.3655L63.2252 36.7202Z" fill="#171717"/><path d="M92.2409 37.3629C92.2409 42.1237 89.6857 45.1823 85.8297 45.1823C84.8529 45.2333 83.8814 45.0089 83.0265 44.5349C82.1717 44.0609 81.4679 43.3564 80.9959 42.502H80.923V50.0901H77.7695V29.7022H80.8219V32.2503H80.8799C81.3736 31.4 82.0893 30.6992 82.9506 30.2223C83.812 29.7453 84.7869 29.5102 85.7717 29.5419C89.6707 29.5419 92.2409 32.6154 92.2409 37.3629ZM88.9997 37.3629C88.9997 34.2613 87.3923 32.2222 84.9398 32.2222C82.5304 32.2222 80.9098 34.3043 80.9098 37.3629C80.9098 40.4497 82.5304 42.5169 84.9398 42.5169C87.3923 42.5169 88.9997 40.4927 88.9997 37.3629Z" fill="#171717"/><path d="M109.155 37.3629C109.155 42.1236 106.6 45.1823 102.744 45.1823C101.767 45.2333 100.795 45.0089 99.9406 44.5349C99.0857 44.0608 98.382 43.3563 97.91 42.502H97.837V50.0901H94.6836V29.7022H97.7359V32.2502H97.7939C98.2877 31.4 99.0033 30.6992 99.8646 30.2223C100.726 29.7453 101.701 29.5102 102.686 29.5419C106.585 29.5419 109.155 32.6154 109.155 37.3629ZM105.914 37.3629C105.914 34.2613 104.306 32.2222 101.854 32.2222C99.4445 32.2222 97.8238 34.3042 97.8238 37.3629C97.8238 40.4497 99.4445 42.5169 101.854 42.5169C104.306 42.5169 105.914 40.4927 105.914 37.3629H105.914Z" fill="#171717"/><path d="M120.326 39.1646C120.559 41.2483 122.589 42.6165 125.363 42.6165C128.021 42.6165 129.934 41.2483 129.934 39.3694C129.934 37.7384 128.78 36.7619 126.049 36.0926L123.318 35.4366C119.449 34.5046 117.653 32.7001 117.653 29.772C117.653 26.1465 120.821 23.6562 125.32 23.6562C129.773 23.6562 132.825 26.1465 132.928 29.772H129.745C129.554 27.675 127.816 26.4092 125.275 26.4092C122.735 26.4092 120.997 27.6899 120.997 29.5539C120.997 31.0394 122.107 31.9136 124.823 32.5827L127.145 33.1512C131.468 34.1707 133.264 35.9026 133.264 38.9761C133.264 42.9072 130.124 45.3694 125.13 45.3694C120.457 45.3694 117.301 42.9651 117.098 39.1644L120.326 39.1646Z" fill="#171717"/><path d="M140.074 26.0742V29.6997H142.995V32.1899H140.074V40.6356C140.074 41.9477 140.659 42.5591 141.943 42.5591C142.29 42.553 142.636 42.5287 142.981 42.4863V44.9617C142.403 45.0693 141.816 45.118 141.229 45.1071C138.119 45.1071 136.906 43.9421 136.906 40.971V32.1899H134.672V29.6997H136.906V26.0742H140.074Z" fill="#171717"/><path d="M144.684 37.3609C144.684 32.5407 147.53 29.5117 151.97 29.5117C156.424 29.5117 159.258 32.5406 159.258 37.3609C159.258 42.1943 156.439 45.21 151.97 45.21C147.502 45.21 144.684 42.1943 144.684 37.3609ZM156.045 37.3609C156.045 34.0543 154.525 32.1028 151.97 32.1028C149.415 32.1028 147.897 34.0692 147.897 37.3609C147.897 40.6806 149.415 42.6173 151.97 42.6173C154.525 42.6173 156.045 40.6806 156.045 37.3609H156.045Z" fill="#171717"/><path d="M161.859 29.702H164.867V32.3096H164.94C165.143 31.4952 165.622 30.7755 166.295 30.2714C166.968 29.7674 167.794 29.5097 168.635 29.5417C168.999 29.5405 169.361 29.5798 169.716 29.6591V32.6004C169.257 32.4606 168.778 32.3964 168.299 32.4104C167.841 32.3919 167.384 32.4724 166.96 32.6465C166.536 32.8206 166.155 33.0841 165.843 33.419C165.531 33.7538 165.295 34.1521 165.152 34.5864C165.008 35.0207 164.961 35.4808 165.013 35.9351V45.0219H161.859L161.859 29.702Z" fill="#171717"/><path d="M184.257 40.5203C183.832 43.3014 181.116 45.21 177.642 45.21C173.172 45.21 170.398 42.224 170.398 37.4336C170.398 32.6282 173.187 29.5117 177.509 29.5117C181.759 29.5117 184.432 32.4233 184.432 37.0684V38.1458H173.582V38.3358C173.532 38.8996 173.602 39.4676 173.789 40.002C173.976 40.5365 174.275 41.0251 174.666 41.4355C175.057 41.846 175.531 42.1687 176.057 42.3825C176.582 42.5962 177.147 42.6959 177.714 42.6751C178.46 42.7448 179.208 42.5726 179.847 42.1844C180.486 41.7962 180.982 41.2125 181.262 40.5203L184.257 40.5203ZM173.597 35.948H181.277C181.306 35.4411 181.228 34.9337 181.051 34.4579C180.873 33.9821 180.599 33.548 180.245 33.1829C179.891 32.8178 179.466 32.5296 178.995 32.3363C178.524 32.143 178.018 32.0489 177.509 32.0598C176.995 32.0567 176.486 32.1551 176.011 32.3493C175.536 32.5434 175.104 32.8295 174.74 33.191C174.377 33.5525 174.088 33.9822 173.892 34.4555C173.696 34.9287 173.595 35.4359 173.597 35.948V35.948Z" fill="#171717"/><path d="M60.2121 18.0332C59.6507 18.0332 59.1502 17.9367 58.7107 17.7439C58.2741 17.5511 57.9267 17.2832 57.6687 16.9401C57.4135 16.5941 57.2745 16.1929 57.2519 15.7364H58.3237C58.3464 16.0171 58.4428 16.2596 58.6129 16.4637C58.783 16.665 59.0056 16.821 59.2806 16.9316C59.5557 17.0422 59.8605 17.0974 60.1951 17.0974C60.5694 17.0974 60.9011 17.0322 61.1903 16.9018C61.4796 16.7714 61.7064 16.5899 61.8709 16.3574C62.0353 16.1249 62.1176 15.8555 62.1176 15.5493C62.1176 15.2289 62.0382 14.9467 61.8794 14.7029C61.7206 14.4562 61.4881 14.2634 61.1818 14.1244C60.8756 13.9855 60.5013 13.916 60.059 13.916H59.3615V12.9803H60.059C60.4049 12.9803 60.7083 12.9179 60.9692 12.7932C61.2329 12.6684 61.4385 12.4926 61.5859 12.2658C61.7362 12.0389 61.8113 11.7724 61.8113 11.4662C61.8113 11.1713 61.7461 10.9147 61.6157 10.6963C61.4852 10.478 61.3009 10.3079 61.0628 10.1859C60.8274 10.064 60.5495 10.0031 60.2291 10.0031C59.9286 10.0031 59.645 10.0583 59.3785 10.1689C59.1148 10.2767 58.8993 10.4341 58.732 10.641C58.5647 10.8452 58.474 11.0919 58.4598 11.3811H57.439C57.456 10.9246 57.5935 10.5248 57.8516 10.1817C58.1096 9.83576 58.447 9.56639 58.8638 9.37358C59.2835 9.18077 59.7443 9.08436 60.2461 9.08436C60.7849 9.08436 61.2471 9.19353 61.6327 9.41186C62.0183 9.62735 62.3146 9.91232 62.5216 10.2668C62.7286 10.6212 62.8321 11.004 62.8321 11.4151C62.8321 11.9057 62.7031 12.3239 62.4451 12.6698C62.1899 13.0158 61.8425 13.2554 61.403 13.3886V13.4567C61.9531 13.5474 62.3827 13.7813 62.6917 14.1585C63.0008 14.5327 63.1553 14.9963 63.1553 15.5493C63.1553 16.0228 63.0263 16.4481 62.7683 16.8252C62.5131 17.1995 62.1643 17.4944 61.722 17.7099C61.2797 17.9254 60.7764 18.0332 60.2121 18.0332ZM66.8344 18.0672C66.4204 18.0672 66.0447 17.9892 65.7073 17.8333C65.3699 17.6745 65.1019 17.4462 64.9034 17.1485C64.7049 16.8479 64.6057 16.485 64.6057 16.0597C64.6057 15.6854 64.6794 15.382 64.8269 15.1495C64.9743 14.9141 65.1714 14.7298 65.4181 14.5965C65.6647 14.4633 65.937 14.364 66.2347 14.2988C66.5352 14.2308 66.8372 14.1769 67.1406 14.1372C67.5376 14.0862 67.8594 14.0479 68.1061 14.0224C68.3556 13.994 68.5371 13.9472 68.6505 13.882C68.7668 13.8168 68.8249 13.7034 68.8249 13.5417V13.5077C68.8249 13.0881 68.7101 12.762 68.4804 12.5295C68.2535 12.297 67.909 12.1807 67.4468 12.1807C66.9677 12.1807 66.592 12.2856 66.3197 12.4954C66.0475 12.7053 65.8561 12.9293 65.7456 13.1675L64.7928 12.8272C64.963 12.4302 65.1898 12.1212 65.4734 11.9C65.7597 11.676 66.0716 11.52 66.4091 11.4321C66.7493 11.3414 67.0839 11.296 67.4128 11.296C67.6226 11.296 67.8637 11.3216 68.1359 11.3726C68.4109 11.4208 68.676 11.5215 68.9312 11.6746C69.1893 11.8277 69.4033 12.0588 69.5735 12.3679C69.7436 12.6769 69.8287 13.0909 69.8287 13.6098V17.9141H68.8249V17.0294H68.7739C68.7058 17.1712 68.5924 17.3229 68.4336 17.4845C68.2748 17.6461 68.0636 17.7836 67.7999 17.897C67.5362 18.0105 67.2143 18.0672 66.8344 18.0672ZM66.9875 17.1655C67.3845 17.1655 67.7191 17.0875 67.9913 16.9316C68.2663 16.7756 68.4733 16.5743 68.6122 16.3276C68.754 16.0809 68.8249 15.8215 68.8249 15.5493V14.6306C68.7824 14.6816 68.6888 14.7284 68.5442 14.7709C68.4024 14.8106 68.2379 14.8461 68.0508 14.8773C67.8665 14.9056 67.6864 14.9311 67.5106 14.9538C67.3377 14.9737 67.1973 14.9907 67.0896 15.0049C66.8287 15.0389 66.5849 15.0942 66.358 15.1707C66.134 15.2445 65.9525 15.3565 65.8136 15.5067C65.6775 15.6542 65.6095 15.8555 65.6095 16.1107C65.6095 16.4595 65.7385 16.7232 65.9965 16.9018C66.2574 17.0776 66.5877 17.1655 66.9875 17.1655ZM75.6928 11.3811V12.3168H72.6645V17.9141H71.6607V11.3811H75.6928ZM77.158 20.3639V11.3811H78.1278V12.4189H78.2469C78.3206 12.3055 78.4227 12.1609 78.5531 11.9851C78.6864 11.8064 78.8763 11.6476 79.123 11.5087C79.3725 11.3669 79.71 11.296 80.1353 11.296C80.6854 11.296 81.1702 11.4336 81.5899 11.7086C82.0096 11.9836 82.337 12.3735 82.5724 12.8782C82.8077 13.383 82.9254 13.9784 82.9254 14.6646C82.9254 15.3565 82.8077 15.9562 82.5724 16.4637C82.337 16.9684 82.011 17.3597 81.5942 17.6376C81.1773 17.9126 80.6967 18.0502 80.1523 18.0502C79.7327 18.0502 79.3966 17.9807 79.1443 17.8418C78.8919 17.7 78.6977 17.5398 78.5616 17.3611C78.4255 17.1797 78.3206 17.0294 78.2469 16.9103H78.1618V20.3639H77.158ZM78.1448 14.6476C78.1448 15.141 78.2171 15.5762 78.3617 15.9533C78.5063 16.3276 78.7176 16.6211 78.9954 16.8337C79.2733 17.0436 79.6136 17.1485 80.0162 17.1485C80.4359 17.1485 80.786 17.0379 81.0668 16.8167C81.3503 16.5927 81.563 16.2922 81.7047 15.915C81.8493 15.5351 81.9217 15.1126 81.9217 14.6476C81.9217 14.1882 81.8508 13.7743 81.709 13.4056C81.57 13.0342 81.3588 12.7407 81.0753 12.5252C80.7945 12.3069 80.4415 12.1977 80.0162 12.1977C79.6079 12.1977 79.2648 12.3012 78.9869 12.5082C78.709 12.7124 78.4992 12.9987 78.3574 13.3674C78.2157 13.7331 78.1448 14.1599 78.1448 14.6476ZM84.8691 20.3639C84.699 20.3639 84.5473 20.3497 84.414 20.3214C84.2808 20.2959 84.1886 20.2704 84.1376 20.2448L84.3928 19.3602C84.6366 19.4225 84.8521 19.4452 85.0393 19.4282C85.2264 19.4112 85.3923 19.3276 85.5369 19.1773C85.6843 19.0298 85.819 18.7902 85.941 18.4585L86.1281 17.9481L83.7123 11.3811H84.8011L86.6045 16.5871H86.6725L88.4759 11.3811H89.5647L86.7916 18.8668C86.6668 19.2042 86.5123 19.4835 86.328 19.7047C86.1437 19.9287 85.9296 20.0946 85.6858 20.2023C85.4447 20.31 85.1725 20.3639 84.8691 20.3639ZM90.4813 16.2468H91.5531C91.5758 16.5417 91.709 16.7657 91.9529 16.9188C92.1996 17.0719 92.52 17.1485 92.9141 17.1485C93.3168 17.1485 93.6613 17.0663 93.9477 16.9018C94.234 16.7345 94.3772 16.4651 94.3772 16.0937C94.3772 15.8753 94.3234 15.6854 94.2156 15.5237C94.1079 15.3593 93.9562 15.2317 93.7605 15.141C93.5649 15.0502 93.3338 15.0049 93.0672 15.0049H91.9444V14.1032H93.0672C93.467 14.1032 93.7619 14.0124 93.9519 13.831C94.1447 13.6495 94.2411 13.4227 94.2411 13.1504C94.2411 12.8584 94.1376 12.6245 93.9306 12.4487C93.7237 12.27 93.4302 12.1807 93.0502 12.1807C92.6674 12.1807 92.3484 12.2672 92.0932 12.4402C91.8381 12.6103 91.7034 12.83 91.6892 13.0994H90.6344C90.6457 12.7478 90.7535 12.4373 90.9576 12.168C91.1618 11.8957 91.4397 11.6831 91.7913 11.53C92.1429 11.374 92.5455 11.296 92.9992 11.296C93.4585 11.296 93.8569 11.3768 94.1943 11.5385C94.5346 11.6973 94.7969 11.9142 94.9812 12.1892C95.1683 12.4614 95.2619 12.7705 95.2619 13.1164C95.2619 13.485 95.1584 13.7828 94.9514 14.0096C94.7444 14.2364 94.485 14.3981 94.1731 14.4945V14.5625C94.4198 14.5795 94.6338 14.6589 94.8153 14.8007C94.9996 14.9396 95.1428 15.1225 95.2449 15.3494C95.347 15.5734 95.398 15.8215 95.398 16.0937C95.398 16.4906 95.2917 16.8366 95.079 17.1315C94.8664 17.4235 94.5743 17.6504 94.2028 17.812C93.8314 17.9708 93.4075 18.0502 92.9311 18.0502C92.4689 18.0502 92.055 17.975 91.6892 17.8247C91.3234 17.6716 91.0328 17.4604 90.8173 17.191C90.6046 16.9188 90.4926 16.6041 90.4813 16.2468ZM97.8117 16.4339L100.959 11.3811H102.116V17.9141H101.112V12.8612L97.9818 17.9141H96.808V11.3811H97.8117V16.4339ZM103.066 12.3168V11.3811H108.374V12.3168H106.23V17.9141H105.226V12.3168H103.066ZM112.238 18.0502C111.608 18.0502 111.065 17.9112 110.609 17.6333C110.155 17.3526 109.805 16.9613 109.558 16.4595C109.314 15.9547 109.192 15.3678 109.192 14.6986C109.192 14.0294 109.314 13.4397 109.558 12.9293C109.805 12.4161 110.148 12.0163 110.587 11.7299C111.03 11.4406 111.546 11.296 112.136 11.296C112.476 11.296 112.812 11.3527 113.144 11.4662C113.475 11.5796 113.777 11.7639 114.049 12.0191C114.322 12.2714 114.539 12.606 114.7 13.0228C114.862 13.4397 114.943 13.9529 114.943 14.5625V14.9878H109.907V14.1202H113.922C113.922 13.7516 113.848 13.4227 113.701 13.1334C113.556 12.8442 113.349 12.616 113.08 12.4487C112.813 12.2814 112.498 12.1977 112.136 12.1977C111.736 12.1977 111.39 12.297 111.098 12.4954C110.809 12.6911 110.586 12.9463 110.43 13.261C110.274 13.5758 110.196 13.9132 110.196 14.2733V14.8517C110.196 15.3451 110.281 15.7633 110.451 16.1064C110.624 16.4467 110.864 16.7061 111.17 16.8848C111.476 17.0606 111.832 17.1485 112.238 17.1485C112.501 17.1485 112.739 17.1116 112.952 17.0379C113.168 16.9613 113.353 16.8479 113.509 16.6976C113.665 16.5445 113.786 16.3545 113.871 16.1277L114.841 16.3999C114.739 16.7288 114.567 17.018 114.326 17.2676C114.085 17.5143 113.787 17.7071 113.433 17.846C113.078 17.9821 112.68 18.0502 112.238 18.0502Z" fill="#171717"/><path d="M192.593 1.14C194.243 1.14 195.825 1.77056 196.992 2.89297C198.159 4.01537 198.815 5.53768 198.815 7.125V49.875C198.815 51.4623 198.159 52.9846 196.992 54.107C195.825 55.2294 194.243 55.86 192.593 55.86H7.40741C5.75717 55.86 4.17452 55.2294 3.00763 54.107C1.84074 52.9846 1.18519 51.4623 1.18519 49.875V7.125C1.18519 5.53768 1.84074 4.01537 3.00763 2.89297C4.17452 1.77056 5.75717 1.14 7.40741 1.14H192.593ZM192.593 0H7.40741C5.44284 0 3.55874 0.750667 2.16958 2.08686C0.780421 3.42306 0 5.23533 0 7.125V49.875C0 51.7647 0.780421 53.5769 2.16958 54.9131C3.55874 56.2493 5.44284 57 7.40741 57H192.593C194.557 57 196.441 56.2493 197.83 54.9131C199.22 53.5769 200 51.7647 200 49.875V7.125C200 5.23533 199.22 3.42306 197.83 2.08686C196.441 0.750667 194.557 0 192.593 0Z" fill="#A6A6A6"/></svg>