<svg xmlns:xlink="http://www.w3.org/1999/xlink" xmlns="http://www.w3.org/2000/svg" width="201" height="58" viewBox="0 0 201 58" fill="none"><g clip-path="url(#clip0_3985_5)"><path d="M193.366 0.21875H8.18085C4.08985 0.21875 0.773438 3.40872 0.773438 7.34375V50.0937C0.773438 54.0288 4.08985 57.2188 8.18085 57.2188H193.366C197.457 57.2188 200.773 54.0288 200.773 50.0937V7.34375C200.773 3.40872 197.457 0.21875 193.366 0.21875Z" fill="white"/><path d="M193.366 1.35875C195.016 1.35875 196.599 1.98931 197.766 3.11172C198.933 4.23412 199.588 5.75643 199.588 7.34375V50.0937C199.588 51.6811 198.933 53.2034 197.766 54.3258C196.599 55.4482 195.016 56.0787 193.366 56.0787H8.18084C6.53061 56.0787 4.94796 55.4482 3.78107 54.3258C2.61418 53.2034 1.95862 51.6811 1.95862 50.0937V7.34375C1.95862 5.75643 2.61418 4.23412 3.78107 3.11172C4.94796 1.98931 6.53061 1.35875 8.18084 1.35875H193.366ZM193.366 0.21875H8.18084C6.21628 0.21875 4.33218 0.969417 2.94302 2.30561C1.55386 3.64181 0.773438 5.45408 0.773438 7.34375V50.0937C0.773438 51.9834 1.55386 53.7957 2.94302 55.1319C4.33218 56.4681 6.21628 57.2187 8.18084 57.2187H193.366C195.331 57.2187 197.215 56.4681 198.604 55.1319C199.993 53.7957 200.773 51.9834 200.773 50.0937V7.34375C200.773 5.45408 199.993 3.64181 198.604 2.30561C197.215 0.969417 195.331 0.21875 193.366 0.21875Z" fill="#A6A6A6"/><path d="M101.72 31.2124C100.472 31.2153 99.2523 31.574 98.2161 32.2434C97.1799 32.9128 96.3733 33.8627 95.8983 34.973C95.4234 36.0833 95.3014 37.3042 95.5478 38.4812C95.7941 39.6582 96.3978 40.7385 97.2825 41.5855C98.1672 42.4325 99.2932 43.0081 100.518 43.2395C101.743 43.471 103.011 43.3479 104.164 42.8859C105.316 42.4238 106.299 41.6435 106.99 40.6437C107.681 39.6438 108.049 38.4693 108.046 37.2687C108.058 36.4677 107.902 35.6727 107.588 34.9308C107.274 34.1889 106.808 33.5153 106.218 32.9502C105.628 32.3852 104.925 31.9401 104.153 31.6415C103.38 31.343 102.552 31.1971 101.72 31.2124V31.2124ZM101.72 40.9452C100.955 40.9967 100.191 40.8255 99.5287 40.4541C98.8661 40.0827 98.3349 39.5281 98.0043 38.8625C97.6737 38.1968 97.559 37.4509 97.6749 36.7217C97.7909 35.9925 98.1323 35.3137 98.6546 34.7736C99.177 34.2334 99.8562 33.857 100.604 33.693C101.352 33.5291 102.133 33.5854 102.848 33.8545C103.562 34.1236 104.175 34.5931 104.608 35.202C105.041 35.8109 105.274 36.531 105.275 37.2687C105.299 37.7361 105.226 38.2034 105.059 38.643C104.892 39.0826 104.635 39.4856 104.304 39.8282C103.972 40.1709 103.573 40.4463 103.129 40.6381C102.685 40.8299 102.206 40.9343 101.72 40.9452ZM87.9124 31.2124C86.6642 31.2153 85.4449 31.574 84.4087 32.2434C83.3725 32.9128 82.5659 33.8627 82.0909 34.973C81.616 36.0833 81.494 37.3042 81.7403 38.4812C81.9867 39.6582 82.5904 40.7385 83.4751 41.5855C84.3598 42.4325 85.4858 43.0081 86.7106 43.2395C87.9354 43.471 89.204 43.3479 90.3561 42.8859C91.5082 42.4238 92.492 41.6435 93.183 40.6437C93.874 39.6438 94.2413 38.4693 94.2384 37.2687C94.2504 36.4677 94.0949 35.6727 93.7809 34.9308C93.4668 34.1889 93.0008 33.5153 92.4106 32.9502C91.8204 32.3852 91.1179 31.9401 90.3452 31.6415C89.5724 31.343 88.7451 31.1971 87.9124 31.2124V31.2124ZM87.9124 40.9452C87.1474 40.9967 86.3839 40.8255 85.7213 40.4541C85.0587 40.0827 84.5275 39.5281 84.1969 38.8625C83.8663 38.1968 83.7516 37.4509 83.8675 36.7217C83.9835 35.9925 84.3249 35.3137 84.8472 34.7736C85.3696 34.2334 86.0488 33.857 86.7966 33.693C87.5443 33.5291 88.326 33.5854 89.0401 33.8545C89.7542 34.1236 90.3676 34.5931 90.8006 35.202C91.2336 35.8109 91.4661 36.531 91.468 37.2687C91.4919 37.7361 91.4182 38.2034 91.2513 38.643C91.0844 39.0826 90.8277 39.4856 90.4964 39.8282C90.165 40.1709 89.7656 40.4463 89.3219 40.6381C88.8781 40.8299 88.3988 40.9343 87.9124 40.9452ZM71.4976 33.0792V35.6442H77.8976C77.7973 36.8523 77.2752 37.9923 76.4162 38.8789C75.7742 39.5081 75.002 40.0006 74.1496 40.3246C73.2973 40.6486 72.3837 40.797 71.468 40.7599C69.582 40.7599 67.7733 40.0393 66.4397 38.7566C65.1061 37.4738 64.3569 35.734 64.3569 33.9199C64.3569 32.1059 65.1061 30.3661 66.4397 29.0833C67.7733 27.8006 69.582 27.0799 71.468 27.0799C73.2761 27.0541 75.0219 27.7145 76.3273 28.9182L78.2087 27.1084C77.3258 26.2684 76.2774 25.6063 75.125 25.161C73.9726 24.7157 72.7394 24.496 71.4976 24.5149C70.1806 24.4656 68.8668 24.6726 67.6348 25.1234C66.4029 25.5742 65.2783 26.2595 64.3284 27.1384C63.3784 28.0172 62.6227 29.0715 62.1065 30.238C61.5903 31.4045 61.3242 32.6593 61.3242 33.9271C61.3242 35.1949 61.5903 36.4496 62.1065 37.6161C62.6227 38.7826 63.3784 39.8369 64.3284 40.7158C65.2783 41.5946 66.4029 42.28 67.6348 42.7308C68.8668 43.1816 70.1806 43.3885 71.4976 43.3392C72.7649 43.3879 74.0286 43.1782 75.2056 42.7238C76.3827 42.2695 77.4465 41.5808 78.3273 40.7029C79.883 39.0591 80.7119 36.897 80.6384 34.6752C80.6437 34.1404 80.5991 33.6063 80.505 33.0792H71.4976ZM138.624 35.0742C138.237 33.9808 137.515 33.0262 136.552 32.3365C135.589 31.6469 134.431 31.2549 133.231 31.2124C132.421 31.2109 131.619 31.3693 130.874 31.6778C130.13 31.9862 129.46 32.4382 128.904 33.0059C128.349 33.5735 127.92 34.2446 127.645 34.9778C127.37 35.711 127.254 36.4907 127.305 37.2687C127.292 38.5695 127.718 39.8394 128.517 40.8886C129.317 41.9378 130.448 42.71 131.741 43.09C133.034 43.47 134.421 43.4373 135.694 42.9968C136.966 42.5563 138.056 41.7316 138.801 40.6459L136.653 39.2209C136.333 39.7343 135.879 40.1583 135.336 40.4508C134.792 40.7432 134.179 40.894 133.557 40.8882C132.915 40.9137 132.28 40.7518 131.735 40.4237C131.19 40.0956 130.762 39.6167 130.505 39.0499L138.935 35.7012L138.624 35.0742ZM130.031 37.0977C130.001 36.6551 130.063 36.2111 130.214 35.7918C130.364 35.3726 130.6 34.9864 130.908 34.656C131.216 34.3256 131.589 34.0575 132.005 33.8675C132.422 33.6775 132.874 33.5693 133.335 33.5494C133.812 33.5214 134.287 33.6295 134.701 33.8602C135.115 34.0909 135.449 34.4339 135.661 34.8462L130.031 37.0977ZM123.187 42.9687H125.957V25.1562H123.187V42.9687ZM118.653 32.5662H118.549C118.136 32.1128 117.625 31.7508 117.052 31.5049C116.479 31.2589 115.858 31.1349 115.231 31.1412C113.612 31.2167 112.085 31.8885 110.967 33.0173C109.849 34.1461 109.226 35.6455 109.226 37.2046C109.226 38.7637 109.849 40.263 110.967 41.3918C112.085 42.5206 113.612 43.1924 115.231 43.2679C115.859 43.2801 116.482 43.1586 117.056 42.9123C117.629 42.666 118.14 42.3008 118.549 41.8429H118.653V42.7122C118.653 45.0349 117.364 46.2747 115.29 46.2747C114.597 46.2601 113.925 46.0477 113.358 45.6646C112.79 45.2815 112.354 44.7449 112.105 44.1229L109.705 45.0777C110.149 46.1496 110.92 47.0668 111.917 47.708C112.915 48.3492 114.091 48.6842 115.29 48.6687C118.535 48.6687 121.216 46.8304 121.216 42.3559V31.5687H118.653V32.5662ZM115.468 40.9452C114.497 40.887 113.586 40.4751 112.92 39.7933C112.254 39.1116 111.884 38.2113 111.884 37.2758C111.884 36.3404 112.254 35.4401 112.92 34.7583C113.586 34.0766 114.497 33.6647 115.468 33.6064C115.942 33.6261 116.408 33.7374 116.837 33.9337C117.265 34.1299 117.649 34.4071 117.964 34.7488C118.279 35.0905 118.52 35.4897 118.671 35.9226C118.823 36.3555 118.882 36.8133 118.846 37.2687C118.886 37.7257 118.83 38.1858 118.68 38.6212C118.53 39.0567 118.29 39.4584 117.975 39.802C117.659 40.1457 117.274 40.4242 116.843 40.6207C116.412 40.8172 115.944 40.9276 115.468 40.9452V40.9452ZM151.601 25.1562H144.964V42.9687H147.735V36.2142H151.601C152.391 36.2687 153.184 36.1663 153.93 35.9131C154.677 35.66 155.361 35.2616 155.941 34.7429C156.52 34.2241 156.982 33.5961 157.298 32.898C157.614 32.1999 157.777 31.4466 157.777 30.6852C157.777 29.9238 157.614 29.1705 157.298 28.4724C156.982 27.7743 156.52 27.1463 155.941 26.6275C155.361 26.1088 154.677 25.7104 153.93 25.4573C153.184 25.2041 152.391 25.1016 151.601 25.1562V25.1562ZM151.601 33.7062H147.735V27.6357H151.661C152.077 27.6357 152.489 27.7146 152.874 27.8678C153.259 28.0211 153.608 28.2457 153.902 28.5289C154.197 28.812 154.43 29.1482 154.59 29.5182C154.749 29.8882 154.831 30.2847 154.831 30.6852C154.831 31.0857 154.749 31.4822 154.59 31.8522C154.43 32.2222 154.197 32.5583 153.902 32.8415C153.608 33.1247 153.259 33.3493 152.874 33.5026C152.489 33.6558 152.077 33.7347 151.661 33.7347L151.601 33.7062ZM168.698 31.1554C167.689 31.0956 166.684 31.3215 165.807 31.8053C164.93 32.289 164.22 33.0093 163.764 33.8772L166.209 34.8604C166.456 34.4321 166.826 34.0817 167.276 33.8516C167.726 33.6215 168.235 33.5215 168.742 33.5637C169.094 33.5242 169.45 33.5524 169.79 33.6468C170.131 33.7412 170.448 33.8998 170.724 34.1133C170.999 34.3269 171.228 34.5911 171.397 34.8907C171.565 35.1902 171.67 35.519 171.705 35.8579V36.0289C170.814 35.5785 169.823 35.3437 168.816 35.3449C166.179 35.3449 163.483 36.7699 163.483 39.3634C163.509 39.9147 163.65 40.4553 163.897 40.9531C164.145 41.4509 164.494 41.8958 164.924 42.2613C165.354 42.6269 165.855 42.9056 166.399 43.081C166.943 43.2563 167.518 43.3248 168.09 43.2822C168.785 43.3192 169.478 43.1777 170.098 42.8722C170.718 42.5667 171.242 42.1082 171.616 41.5437H171.705V42.9687H174.372V36.1144C174.372 32.9937 171.912 31.1839 168.757 31.1839L168.698 31.1554ZM168.357 40.9167C167.453 40.9167 166.194 40.4749 166.194 39.4062C166.194 37.9812 167.764 37.4967 169.157 37.4967C170.037 37.4758 170.907 37.6825 171.675 38.0952C171.582 38.8691 171.201 39.5843 170.602 40.1083C170.002 40.6323 169.226 40.9297 168.416 40.9452L168.357 40.9167ZM184.09 31.5687L180.92 39.2922H180.831L177.542 31.5687H174.579L179.512 42.3702L176.698 48.3694H179.587L187.172 31.5687H184.09ZM159.201 42.9687H161.957V25.1562H159.201V42.9687Z" fill="#171717"/><path d="M61.3242 21.4953V18.6321H61.5205C61.7749 18.6321 61.9784 18.5726 62.1311 18.4538C62.2837 18.3349 62.411 18.0972 62.5127 17.7406C62.6218 17.377 62.7054 16.8421 62.7635 16.1359L63.0797 12.2344H67.921V18.6321H69.044V21.4953H67.921V19.6284H62.4473V21.4953H61.3242ZM66.7979 18.6321V13.2307H64.1156L63.8866 16.1884C63.7994 17.37 63.574 18.1846 63.2106 18.6321H66.7979Z" fill="#171717"/><path d="M72.6142 19.7333C72.0399 19.7333 71.5274 19.6144 71.0767 19.3767C70.626 19.139 70.2735 18.8069 70.0191 18.3803C69.7647 17.9538 69.6374 17.4679 69.6374 16.9225C69.6374 16.3771 69.7647 15.8912 70.0191 15.4647C70.2735 15.0382 70.626 14.706 71.0767 14.4683C71.5274 14.2236 72.0399 14.1012 72.6142 14.1012C73.1884 14.1012 73.7009 14.2236 74.1516 14.4683C74.6023 14.706 74.9548 15.0382 75.2092 15.4647C75.4637 15.8912 75.5909 16.3771 75.5909 16.9225C75.5909 17.4679 75.4637 17.9538 75.2092 18.3803C74.9548 18.8069 74.6023 19.139 74.1516 19.3767C73.7009 19.6144 73.1884 19.7333 72.6142 19.7333ZM72.6142 18.7894C73.1666 18.7894 73.6137 18.6181 73.9553 18.2755C74.3042 17.9329 74.4787 17.4819 74.4787 16.9225C74.4787 16.3632 74.3042 15.9122 73.9553 15.5696C73.6137 15.22 73.1666 15.0452 72.6142 15.0452C72.0617 15.0452 71.6146 15.22 71.273 15.5696C70.9313 15.9122 70.7605 16.3632 70.7605 16.9225C70.7605 17.4749 70.9313 17.9259 71.273 18.2755C71.6146 18.6181 72.0617 18.7894 72.6142 18.7894Z" fill="#171717"/><path d="M79.3319 19.7333C78.7721 19.7333 78.2669 19.6144 77.8162 19.3767C77.3728 19.132 77.0275 18.7964 76.7804 18.3699C76.5332 17.9433 76.4097 17.4609 76.4097 16.9225C76.4097 16.3771 76.5332 15.8912 76.7804 15.4647C77.0275 15.0382 77.3728 14.706 77.8162 14.4683C78.2597 14.2236 78.7649 14.1012 79.3319 14.1012C79.9352 14.1012 80.4731 14.2411 80.9456 14.5208C81.4254 14.8004 81.767 15.2025 81.9706 15.7269L80.9674 15.8842C80.8366 15.6325 80.6294 15.4297 80.3459 15.2759C80.0697 15.1221 79.7535 15.0452 79.3973 15.0452C78.8448 15.0452 78.3941 15.22 78.0452 15.5696C77.7036 15.9192 77.5327 16.3701 77.5327 16.9225C77.5327 17.4749 77.7036 17.9259 78.0452 18.2755C78.3941 18.6181 78.8448 18.7894 79.3973 18.7894C79.768 18.7894 80.0951 18.709 80.3786 18.5482C80.6694 18.3873 80.8802 18.1741 81.011 17.9084L82.0142 18.0657C81.8106 18.5971 81.4617 19.0096 80.9674 19.3033C80.4804 19.59 79.9352 19.7333 79.3319 19.7333Z" fill="#171717"/><path d="M85.3133 19.6284H84.2447V15.15H82.293V14.2061H87.2651V15.15H85.3133V19.6284Z" fill="#171717"/><path d="M92.3132 14.2061H93.4145L91.0593 20.4465C90.8848 20.9149 90.6559 21.2541 90.3724 21.4638C90.0889 21.6736 89.7109 21.7785 89.2384 21.7785H88.3988L88.3007 20.8345H89.3038C89.5146 20.8345 89.6782 20.7891 89.7945 20.6982C89.9108 20.6143 90.0089 20.464 90.0889 20.2472L90.2088 19.9326L87.701 14.2061H88.8459L90.6341 18.3908H90.7867L92.3132 14.2061Z" fill="#171717"/><path d="M95.4493 19.6284H94.3808V14.2061H99.1784V19.6284H98.1098V15.15H95.4493V19.6284Z" fill="#171717"/><path d="M104.436 16.4191V14.2061H105.505V19.6284H104.436V17.363H101.721V19.6284H100.653V14.2061H101.721V16.4191H104.436Z" fill="#171717"/><path d="M109.627 19.7333C109.053 19.7333 108.54 19.6144 108.09 19.3767C107.639 19.139 107.286 18.8069 107.032 18.3803C106.778 17.9538 106.65 17.4679 106.65 16.9225C106.65 16.3771 106.778 15.8912 107.032 15.4647C107.286 15.0382 107.639 14.706 108.09 14.4683C108.54 14.2236 109.053 14.1012 109.627 14.1012C110.201 14.1012 110.714 14.2236 111.165 14.4683C111.615 14.706 111.968 15.0382 112.222 15.4647C112.477 15.8912 112.604 16.3771 112.604 16.9225C112.604 17.4679 112.477 17.9538 112.222 18.3803C111.968 18.8069 111.615 19.139 111.165 19.3767C110.714 19.6144 110.201 19.7333 109.627 19.7333ZM109.627 18.7894C110.18 18.7894 110.627 18.6181 110.968 18.2755C111.317 17.9329 111.492 17.4819 111.492 16.9225C111.492 16.3632 111.317 15.9122 110.968 15.5696C110.627 15.22 110.18 15.0452 109.627 15.0452C109.075 15.0452 108.628 15.22 108.286 15.5696C107.944 15.9122 107.773 16.3632 107.773 16.9225C107.773 17.4749 107.944 17.9259 108.286 18.2755C108.628 18.6181 109.075 18.7894 109.627 18.7894Z" fill="#171717"/><path d="M120.109 16.7862C120.4 16.891 120.633 17.0624 120.807 17.3001C120.989 17.5308 121.08 17.8035 121.08 18.1181C121.08 18.4048 120.992 18.6635 120.818 18.8943C120.651 19.125 120.414 19.3068 120.109 19.4396C119.804 19.5655 119.455 19.6284 119.062 19.6284H116.369V14.2061H118.964C119.335 14.2061 119.666 14.269 119.957 14.3949C120.247 14.5208 120.473 14.6921 120.633 14.9088C120.8 15.1256 120.883 15.3738 120.883 15.6535C120.883 15.9192 120.814 16.1499 120.676 16.3457C120.545 16.5345 120.356 16.6813 120.109 16.7862ZM117.438 15.0766V16.4086H118.964C119.211 16.4086 119.415 16.3492 119.575 16.2303C119.735 16.1044 119.815 15.9436 119.815 15.7479C119.815 15.5521 119.735 15.3913 119.575 15.2654C119.415 15.1396 119.211 15.0766 118.964 15.0766H117.438ZM119.062 18.7579C119.346 18.7579 119.575 18.688 119.749 18.5482C119.924 18.4083 120.011 18.2265 120.011 18.0028C120.011 17.779 119.924 17.5972 119.749 17.4574C119.575 17.3176 119.346 17.2476 119.062 17.2476H117.438V18.7579H119.062Z" fill="#171717"/><path d="M16.8262 10.9667C16.339 11.5208 16.0904 12.233 16.1314 12.9576V44.4135C16.0811 45.1393 16.3308 45.8548 16.8262 46.4044L16.9297 46.5182L35.2474 28.8989V28.4723L16.9297 10.8672L16.8262 10.9667Z" fill="url(#paint0_linear_3985_5)"/><path d="M41.3076 34.7705L35.2461 28.8974V28.4708L41.3076 22.5977L41.4407 22.683L48.6997 26.6363C50.7695 27.7597 50.7695 29.6084 48.6997 30.746L41.4703 34.6994L41.3076 34.7705Z" fill="url(#paint1_linear_3985_5)"/><path d="M41.4882 34.6886L35.2493 28.6875L16.8281 46.4063C17.2459 46.764 17.7806 46.9698 18.3396 46.988C18.8986 47.0062 19.4465 46.8356 19.8885 46.5059L41.4882 34.6886" fill="url(#paint2_linear_3985_5)"/><path d="M41.4882 22.6842L19.8885 10.8811C19.4494 10.5468 18.9019 10.3721 18.3421 10.3877C17.7824 10.4033 17.2463 10.6082 16.8281 10.9664L35.2493 28.6853L41.4882 22.6842Z" fill="url(#paint3_linear_3985_5)"/><path opacity="0.2" d="M41.3108 34.5625L19.8885 46.2945C19.4626 46.6036 18.9436 46.7709 18.41 46.7709C17.8765 46.7709 17.3575 46.6036 16.9316 46.2945V46.2945L16.8281 46.394L16.9316 46.5078C17.3575 46.8169 17.8765 46.9842 18.41 46.9842C18.9436 46.9842 19.4626 46.8169 19.8885 46.5078L41.4882 34.6905L41.3108 34.5625Z" fill="black"/><path opacity="0.12" d="M16.827 46.2082C16.3521 45.6442 16.1194 44.9268 16.1765 44.2031V44.4164C16.1261 45.1422 16.3759 45.8578 16.8713 46.4073L16.9748 46.3078L16.827 46.2082Z" fill="black"/><path opacity="0.12" d="M48.7007 30.5362L41.3086 34.5606L41.4417 34.6886L48.7007 30.7353C49.1292 30.561 49.5009 30.2788 49.7767 29.9184C50.0525 29.5581 50.2222 29.1328 50.2678 28.6875C50.1754 29.0922 49.9854 29.4703 49.7132 29.7914C49.441 30.1125 49.0942 30.3676 48.7007 30.5362Z" fill="black"/><path opacity="0.25" d="M19.888 11.0815L48.7025 26.8379C49.096 27.0064 49.4428 27.2616 49.715 27.5827C49.9872 27.9038 50.1772 28.2819 50.2696 28.6866C50.2239 28.2412 50.0543 27.816 49.7785 27.4556C49.5027 27.0953 49.131 26.8131 48.7025 26.6388L19.888 10.8824C17.833 9.74476 16.1328 10.6833 16.1328 12.9586V13.1719C16.1772 10.8966 17.833 9.95807 19.888 11.0815Z" fill="white"/></g><defs><linearGradient id="paint0_linear_3985_5" x1="33.6211" y1="12.6305" x2="9.77699" y2="37.4197" gradientUnits="userSpaceOnUse"><stop stop-color="#00A0FF"/><stop offset="0.01" stop-color="#00A1FF"/><stop offset="0.26" stop-color="#00BEFF"/><stop offset="0.51" stop-color="#00D2FF"/><stop offset="0.76" stop-color="#00DFFF"/><stop offset="1" stop-color="#00E3FF"/></linearGradient><linearGradient id="paint1_linear_3985_5" x1="51.4052" y1="28.6841" x2="15.6422" y2="28.6841" gradientUnits="userSpaceOnUse"><stop stop-color="#FFE000"/><stop offset="0.41" stop-color="#FFBD00"/><stop offset="0.78" stop-color="#FFA500"/><stop offset="1" stop-color="#FF9C00"/></linearGradient><linearGradient id="paint2_linear_3985_5" x1="38.1026" y1="31.9582" x2="5.76046" y2="65.5675" gradientUnits="userSpaceOnUse"><stop stop-color="#FF3A44"/><stop offset="1" stop-color="#C31162"/></linearGradient><linearGradient id="paint3_linear_3985_5" x1="12.1859" y1="0.500069" x2="26.6231" y2="15.5095" gradientUnits="userSpaceOnUse"><stop stop-color="#32A071"/><stop offset="0.07" stop-color="#2DA771"/><stop offset="0.48" stop-color="#15CF74"/><stop offset="0.8" stop-color="#06E775"/><stop offset="1" stop-color="#00F076"/></linearGradient><clipPath id="clip0_3985_5"><rect width="200" height="57" fill="white" transform="translate(0.773438 0.21875)"/></clipPath></defs></svg>