<svg xmlns:xlink="http://www.w3.org/1999/xlink" xmlns="http://www.w3.org/2000/svg" width="200" height="57" viewBox="0 0 200 57" fill="none"><g clip-path="url(#clip0_3986_20)"><path fill-rule="evenodd" clip-rule="evenodd" d="M35.0334 49.9275C25.2526 49.9275 20.3622 49.9275 17.3237 46.9148C14.2852 43.9022 14.2852 39.0534 14.2852 29.3559L14.2852 27.6416C14.2852 17.9441 14.2852 13.0954 17.3237 10.0828C20.3622 7.07031 25.2526 7.07031 35.0334 7.07031L36.7624 7.07031C46.5432 7.07031 51.4337 7.07031 54.4722 10.0828C57.5107 13.0953 57.5107 17.9441 57.5107 27.6416V29.3559C57.5107 39.0534 57.5107 43.9022 54.4722 46.9148C51.4337 49.9275 46.5432 49.9275 36.7624 49.9275H35.0334Z" fill="#0077FF"/><path d="M39.2781 33.48C38.1135 33.1916 37.2969 32.1587 37.2969 30.974V17.0172C37.2969 15.6717 38.5793 14.6848 39.9021 15.0124L48.279 17.0872C49.4437 17.3756 50.2603 18.4085 50.2603 19.5932V33.55C50.2603 34.8955 48.9778 35.8824 47.655 35.5548L39.2781 33.48Z" fill="white"/><path d="M23.5125 39.9097C22.3478 39.6213 21.5312 38.5884 21.5312 37.4037V23.4469C21.5312 22.1014 22.8136 21.1145 24.1364 21.4421L32.5134 23.5169C33.678 23.8053 34.4946 24.8382 34.4946 26.0229V39.9797C34.4946 41.3252 33.2122 42.3121 31.8894 41.9844L23.5125 39.9097Z" fill="white"/><path d="M31.3953 36.6949C30.2306 36.4064 29.4141 35.3735 29.4141 34.1888V20.2321C29.4141 18.8866 30.6965 17.8997 32.0193 18.2273L40.3962 20.3021C41.5608 20.5905 42.3774 21.6234 42.3774 22.8081V36.7648C42.3774 38.1104 41.095 39.0973 39.7722 38.7696L31.3953 36.6949Z" fill="white"/><path d="M36.878 38.0554C36.5112 37.9628 36.2501 37.6412 36.2373 37.2661L35.8729 26.6074C35.7675 25.1967 34.7113 24.0748 33.6076 23.7444C33.5456 23.7258 33.4795 23.7508 33.4428 23.8036C33.4055 23.8574 33.4199 23.9317 33.4719 23.9717C33.7445 24.1808 34.4946 24.8635 34.4946 26.0409L34.4924 37.456L36.878 38.0554Z" fill="#0077FF"/><path d="M44.7648 34.8404C44.3983 34.7494 44.1369 34.4288 44.1241 34.0544L43.7596 23.3964C43.6542 21.9858 42.598 20.8638 41.4943 20.5334C41.4324 20.5149 41.3662 20.5399 41.3295 20.5927C41.2922 20.6464 41.3066 20.7208 41.3586 20.7607C41.6311 20.9699 42.3813 21.6525 42.3813 22.8299L42.3791 34.249L44.7648 34.8404Z" fill="#0077FF"/><path d="M82.3928 39.3451C85.6661 38.5176 87.8171 36.0354 87.8171 32.787C87.8171 28.7724 84.5747 25.9531 80.0233 25.9531H71.918V47.5579H75.6589V39.6209H78.309L84.1071 47.5579H88.5028L82.3928 39.3451ZM80.0233 29.3241C82.3614 29.3241 83.9828 30.7337 83.9828 32.787C83.9828 34.8402 82.3614 36.2499 80.0233 36.2499H75.6589V29.3241H80.0233Z" fill="black"/><path d="M96.9228 47.863C98.8866 47.863 100.695 46.8517 101.724 45.1662L102.44 47.5566H105.122V31.6211H101.537V40.8453C101.537 43.113 100.009 44.7066 97.9205 44.7066C95.8628 44.7066 94.4285 43.113 94.4285 40.8453V31.6211H90.8438V41.2437C90.8438 45.0743 93.4623 47.863 96.9228 47.863Z" fill="black"/><path d="M116.562 47.8623C120.708 47.8623 124.137 45.5332 124.137 41.6719C124.137 37.351 120.552 36.0945 117.466 35.0526C115.065 34.2558 112.977 33.5204 112.977 31.5897C112.977 29.9042 114.566 29.0155 116.437 29.0155C118.401 29.0155 119.804 30.0268 120.584 31.7429L124.137 31.1607C123.015 27.7897 120.178 25.6445 116.313 25.6445C112.322 25.6445 109.142 27.9123 109.142 31.7736C109.142 36.1252 112.727 37.3203 115.814 38.3316C118.183 39.0978 120.303 39.8332 120.303 41.7945C120.303 43.5107 118.713 44.4913 116.593 44.4913C114.161 44.4913 112.852 43.3574 111.699 41.3042L108.082 41.9171C109.142 45.5639 112.509 47.8623 116.562 47.8623Z" fill="black"/><path d="M133.891 44.4912C132.675 44.4912 132.082 43.9089 132.082 42.7138V34.6847H136.914V31.6202H132.082V27.0234H129.401L128.497 31.6202H125.848V34.6847H128.497V42.7138C128.497 45.8396 130.337 47.5557 133.891 47.5557H136.914L137.226 44.4912H133.891Z" fill="black"/><path d="M147.471 47.8648C152.553 47.8648 156.138 44.4325 156.138 39.5906C156.138 34.7486 152.553 31.3164 147.471 31.3164C142.39 31.3164 138.805 34.7486 138.805 39.5906C138.805 44.4325 142.39 47.8648 147.471 47.8648ZM147.471 44.647C144.541 44.647 142.546 42.5938 142.546 39.5906C142.546 36.5873 144.541 34.5341 147.471 34.5341C150.402 34.5341 152.397 36.5873 152.397 39.5906C152.397 42.5938 150.402 44.647 147.471 44.647Z" fill="black"/><path d="M162.843 47.5566V38.1485C162.843 36.126 163.84 34.9921 166.023 34.9921H168.08L167.768 31.6211H167.083C165.181 31.6211 163.715 32.1421 162.624 33.9195L161.939 31.6211H159.258V47.5566H162.843Z" fill="black"/><path d="M185.748 39.4575C185.748 34.8607 182.257 31.3672 177.331 31.3672C172.406 31.3672 168.914 34.8301 168.914 39.6414C168.914 44.4526 172.406 47.9155 177.331 47.9155C180.698 47.9155 183.878 46.3527 185.094 43.3188L181.727 42.7672C180.948 43.901 179.451 44.6978 177.55 44.6978C174.807 44.6978 172.998 43.043 172.655 40.5914H185.686C185.718 40.2542 185.748 39.8865 185.748 39.4575ZM177.331 34.4317C179.576 34.4317 181.259 35.8414 181.852 37.8333H172.874C173.466 35.7801 175.149 34.4317 177.331 34.4317Z" fill="black"/><path d="M71.1836 20.5328V17.4128H71.3893C71.656 17.4128 71.8693 17.3481 72.0293 17.2185C72.1893 17.089 72.3226 16.83 72.4293 16.4414C72.5436 16.0452 72.6312 15.4624 72.6922 14.6928L73.0236 10.4414H78.0979V17.4128H79.275V20.5328H78.0979V18.4985H72.3607V20.5328H71.1836ZM76.9207 17.4128V11.5271H74.1093L73.8693 14.75C73.7779 16.0376 73.5417 16.9252 73.1607 17.4128H76.9207Z" fill="black"/><path d="M83.017 18.6128C82.4151 18.6128 81.8779 18.4833 81.4056 18.2243C80.9332 17.9652 80.5637 17.6033 80.297 17.1385C80.0303 16.6738 79.897 16.1443 79.897 15.55C79.897 14.9557 80.0303 14.4262 80.297 13.9614C80.5637 13.4966 80.9332 13.1347 81.4056 12.8757C81.8779 12.609 82.4151 12.4757 83.017 12.4757C83.6189 12.4757 84.156 12.609 84.6284 12.8757C85.1008 13.1347 85.4703 13.4966 85.737 13.9614C86.0037 14.4262 86.137 14.9557 86.137 15.55C86.137 16.1443 86.0037 16.6738 85.737 17.1385C85.4703 17.6033 85.1008 17.9652 84.6284 18.2243C84.156 18.4833 83.6189 18.6128 83.017 18.6128ZM83.017 17.5843C83.596 17.5843 84.0646 17.3976 84.4227 17.0243C84.7884 16.6509 84.9713 16.1595 84.9713 15.55C84.9713 14.9405 84.7884 14.449 84.4227 14.0757C84.0646 13.6947 83.596 13.5043 83.017 13.5043C82.4379 13.5043 81.9694 13.6947 81.6113 14.0757C81.2532 14.449 81.0741 14.9405 81.0741 15.55C81.0741 16.1519 81.2532 16.6433 81.6113 17.0243C81.9694 17.3976 82.4379 17.5843 83.017 17.5843Z" fill="black"/><path d="M90.0581 18.6128C89.4714 18.6128 88.9419 18.4833 88.4695 18.2243C88.0047 17.9576 87.6428 17.5919 87.3838 17.1271C87.1247 16.6624 86.9952 16.1366 86.9952 15.55C86.9952 14.9557 87.1247 14.4262 87.3838 13.9614C87.6428 13.4966 88.0047 13.1347 88.4695 12.8757C88.9342 12.609 89.4638 12.4757 90.0581 12.4757C90.6904 12.4757 91.2542 12.6281 91.7495 12.9328C92.2523 13.2376 92.6104 13.6757 92.8238 14.2471L91.7723 14.4185C91.6352 14.1443 91.4181 13.9233 91.1209 13.7557C90.8314 13.5881 90.5 13.5043 90.1266 13.5043C89.5476 13.5043 89.0752 13.6947 88.7095 14.0757C88.3514 14.4566 88.1723 14.9481 88.1723 15.55C88.1723 16.1519 88.3514 16.6433 88.7095 17.0243C89.0752 17.3976 89.5476 17.5843 90.1266 17.5843C90.5152 17.5843 90.8581 17.4966 91.1552 17.3214C91.46 17.1462 91.6809 16.9138 91.8181 16.6243L92.8695 16.7957C92.6562 17.3747 92.2904 17.8243 91.7723 18.1443C91.2619 18.4566 90.6904 18.6128 90.0581 18.6128Z" fill="black"/><path d="M96.3274 18.4985H95.2074V13.6185H93.1617V12.59H98.3731V13.6185H96.3274V18.4985Z" fill="black"/><path d="M103.664 12.59H104.819L102.35 19.39C102.167 19.9005 101.927 20.27 101.63 20.4985C101.333 20.7271 100.937 20.8414 100.441 20.8414H99.5614L99.4586 19.8128H100.51C100.731 19.8128 100.902 19.7633 101.024 19.6643C101.146 19.5728 101.249 19.409 101.333 19.1728L101.459 18.83L98.83 12.59H100.03L101.904 17.15H102.064L103.664 12.59Z" fill="black"/><path d="M106.951 18.4985H105.831V12.59H110.86V18.4985H109.74V13.6185H106.951V18.4985Z" fill="black"/><path d="M116.371 15.0014V12.59H117.491V18.4985H116.371V16.03H113.525V18.4985H112.405V12.59H113.525V15.0014H116.371Z" fill="black"/><path d="M121.812 18.6128C121.21 18.6128 120.673 18.4833 120.2 18.2243C119.728 17.9652 119.358 17.6033 119.092 17.1385C118.825 16.6738 118.692 16.1443 118.692 15.55C118.692 14.9557 118.825 14.4262 119.092 13.9614C119.358 13.4966 119.728 13.1347 120.2 12.8757C120.673 12.609 121.21 12.4757 121.812 12.4757C122.414 12.4757 122.951 12.609 123.423 12.8757C123.895 13.1347 124.265 13.4966 124.532 13.9614C124.798 14.4262 124.932 14.9557 124.932 15.55C124.932 16.1443 124.798 16.6738 124.532 17.1385C124.265 17.6033 123.895 17.9652 123.423 18.2243C122.951 18.4833 122.414 18.6128 121.812 18.6128ZM121.812 17.5843C122.391 17.5843 122.859 17.3976 123.217 17.0243C123.583 16.6509 123.766 16.1595 123.766 15.55C123.766 14.9405 123.583 14.449 123.217 14.0757C122.859 13.6947 122.391 13.5043 121.812 13.5043C121.233 13.5043 120.764 13.6947 120.406 14.0757C120.048 14.449 119.869 14.9405 119.869 15.55C119.869 16.1519 120.048 16.6433 120.406 17.0243C120.764 17.3976 121.233 17.5843 121.812 17.5843Z" fill="black"/><path d="M132.798 15.4014C133.103 15.5157 133.347 15.7024 133.53 15.9614C133.72 16.2128 133.815 16.51 133.815 16.8528C133.815 17.1652 133.724 17.4471 133.541 17.6985C133.366 17.95 133.118 18.1481 132.798 18.2928C132.478 18.43 132.113 18.4985 131.701 18.4985H128.878V12.59H131.598C131.987 12.59 132.333 12.6585 132.638 12.7957C132.943 12.9328 133.179 13.1195 133.347 13.3557C133.522 13.5919 133.61 13.8624 133.61 14.1671C133.61 14.4566 133.537 14.7081 133.393 14.9214C133.255 15.1271 133.057 15.2871 132.798 15.4014ZM129.998 13.5385V14.99H131.598C131.857 14.99 132.071 14.9252 132.238 14.7957C132.406 14.6585 132.49 14.4833 132.49 14.27C132.49 14.0566 132.406 13.8814 132.238 13.7443C132.071 13.6071 131.857 13.5385 131.598 13.5385H129.998ZM131.701 17.55C131.998 17.55 132.238 17.4738 132.421 17.3214C132.604 17.169 132.695 16.9709 132.695 16.7271C132.695 16.4833 132.604 16.2852 132.421 16.1328C132.238 15.9805 131.998 15.9043 131.701 15.9043H129.998V17.55H131.701Z" fill="black"/></g><path d="M192.593 1.14C194.243 1.14 195.825 1.77056 196.992 2.89297C198.159 4.01537 198.815 5.53768 198.815 7.125V49.875C198.815 51.4623 198.159 52.9846 196.992 54.107C195.825 55.2294 194.243 55.86 192.593 55.86H7.40741C5.75717 55.86 4.17452 55.2294 3.00763 54.107C1.84074 52.9846 1.18519 51.4623 1.18519 49.875V7.125C1.18519 5.53768 1.84074 4.01537 3.00763 2.89297C4.17452 1.77056 5.75717 1.14 7.40741 1.14H192.593ZM192.593 0H7.40741C5.44284 0 3.55874 0.750667 2.16958 2.08686C0.780421 3.42306 0 5.23533 0 7.125V49.875C0 51.7647 0.780421 53.5769 2.16958 54.9131C3.55874 56.2493 5.44284 57 7.40741 57H192.593C194.557 57 196.441 56.2493 197.83 54.9131C199.22 53.5769 200 51.7647 200 49.875V7.125C200 5.23533 199.22 3.42306 197.83 2.08686C196.441 0.750667 194.557 0 192.593 0Z" fill="#A6A6A6"/><defs><clipPath id="clip0_3986_20"><rect width="171.429" height="42.8571" fill="white" transform="translate(14.2852 7.07031)"/></clipPath></defs></svg>